<?xml version="1.0" standalone="no"?><svg xmlns="http://www.w3.org/2000/svg" viewBox="0 0 1440 320"><path fill="#4e4feb" fill-opacity="0.8" d="M0,96L30,112C60,128,120,160,180,176C240,192,300,192,360,202.7C420,213,480,235,540,218.7C600,203,660,149,720,117.3C780,85,840,75,900,96C960,117,1020,171,1080,213.3C1140,256,1200,288,1260,256C1320,224,1380,128,1410,80L1440,32L1440,320L1410,320C1380,320,1320,320,1260,320C1200,320,1140,320,1080,320C1020,320,960,320,900,320C840,320,780,320,720,320C660,320,600,320,540,320C480,320,420,320,360,320C300,320,240,320,180,320C120,320,60,320,30,320L0,320Z"></path></svg>